<?xml version="1.0" encoding="utf-8"?>
<!-- Generator: Adobe Illustrator 19.1.0, SVG Export Plug-In . SVG Version: 6.00 Build 0)  -->
<!DOCTYPE svg PUBLIC "-//W3C//DTD SVG 1.1//EN" "http://www.w3.org/Graphics/SVG/1.1/DTD/svg11.dtd">
<svg version="1.1" id="Layer_1" xmlns="http://www.w3.org/2000/svg" xmlns:xlink="http://www.w3.org/1999/xlink" x="0px" y="0px"
	 viewBox="0 0 1280 64" style="enable-background:new 0 0 1280 64;" xml:space="preserve">
<style type="text/css">
	.st0{fill:#AA1E22;}
	.st1{fill:#00AB4B;}
	.st2{fill:#3B3091;}
	.st3{fill:#6AC394;}
	.st4{fill:#3A2F90;}
	.st5{fill:#6CC394;}
	.st6{fill:#EE2924;}
	.st7{fill:#3B59A8;}
	.st8{fill:#CC2326;}
	.st9{fill:#634C9F;}
	.st10{fill:#662367;}
	.st11{fill:#CDCD5E;}
	.st12{fill:#CF202F;}
	.st13{fill:#9A3230;}
	.st14{fill:#00669C;}
	.st15{fill:#65682D;}
	.st16{fill:#66130C;}
	.st17{fill:#67692C;}
	.st18{fill:#3856A6;}
	.st19{fill:#A91E22;}
	.st20{fill:#67672F;}
	.st21{fill:#9B3331;}
	.st22{fill:#66682C;}
	.st23{fill:#4659A8;}
	.st24{fill:#A0CC3A;}
	.st25{fill:#CF202E;}
	.st26{fill:#CD2265;}
	.st27{fill:#009B49;}
	.st28{fill:#6F8EC8;}
	.st29{fill:#FFFFFF;stroke:#000000;stroke-miterlimit:10;}
	.st30{opacity:0.2;fill:#EF4136;}
	.st31{opacity:0.4;fill:#EF4136;}
	.st32{opacity:0.6;fill:#EF4136;}
	.st33{opacity:0.8;fill:#EF4136;}
	.st34{fill:#EF4136;}
</style>
<g>
	<rect x="96" y="18" width="4" height="4"/>
	<rect x="160" y="18" width="4" height="4"/>
	<polygon class="st1" points="104,18 104,24 102,24 102,26 94,26 94,18 96,18 96,22 100,22 100,18 98,18 98,16 102,16 102,18 	"/>
	<polygon class="st1" points="168,18 168,24 166,24 166,26 158,26 158,18 160,18 160,22 164,22 164,18 162,18 162,16 166,16 166,18 
			"/>
	<rect x="226" y="18" width="4" height="4"/>
	<polygon class="st1" points="234,18 234,24 232,24 232,26 224,26 224,18 226,18 226,22 230,22 230,18 228,18 228,16 232,16 232,18 
			"/>
	<rect x="292" y="18" width="4" height="4"/>
	<polygon class="st1" points="300,18 300,24 298,24 298,26 290,26 290,18 292,18 292,22 296,22 296,18 294,18 294,16 298,16 298,18 
			"/>
	<rect x="356" y="18" width="4" height="4"/>
	<rect x="416" y="18" width="4" height="4"/>
	<polygon class="st1" points="364,18 364,24 362,24 362,26 354,26 354,18 356,18 356,22 360,22 360,18 358,18 358,16 362,16 362,18 
			"/>
	<polygon class="st1" points="424,18 424,24 422,24 422,26 414,26 414,18 416,18 416,22 420,22 420,18 418,18 418,16 422,16 422,18 
			"/>
	<rect x="478" y="18" width="4" height="4"/>
	<polygon class="st1" points="486,18 486,24 484,24 484,26 476,26 476,18 478,18 478,22 482,22 482,18 480,18 480,16 484,16 484,18 
			"/>
	<rect x="542" y="18" width="4" height="4"/>
	<polygon class="st1" points="550,18 550,24 548,24 548,26 540,26 540,18 542,18 542,22 546,22 546,18 544,18 544,16 548,16 548,18 
			"/>
	<rect x="602" y="18" width="4" height="4"/>
	<polygon class="st1" points="610,18 610,24 608,24 608,26 600,26 600,18 602,18 602,22 606,22 606,18 604,18 604,16 608,16 608,18 
			"/>
	<rect x="668" y="18" width="4" height="4"/>
	<polygon class="st1" points="676,18 676,24 674,24 674,26 666,26 666,18 668,18 668,22 672,22 672,18 670,18 670,16 674,16 674,18 
			"/>
	<rect x="734" y="18" width="4" height="4"/>
	<polygon class="st1" points="742,18 742,24 740,24 740,26 732,26 732,18 734,18 734,22 738,22 738,18 736,18 736,16 740,16 740,18 
			"/>
	<rect x="798" y="18" width="4" height="4"/>
	<polygon class="st1" points="806,18 806,24 804,24 804,26 796,26 796,18 798,18 798,22 802,22 802,18 800,18 800,16 804,16 804,18 
			"/>
	<rect x="862" y="18" width="4" height="4"/>
	<polygon class="st1" points="870,18 870,24 868,24 868,26 860,26 860,18 862,18 862,22 866,22 866,18 864,18 864,16 868,16 868,18 
			"/>
	<rect x="926" y="18" width="4" height="4"/>
	<polygon class="st1" points="934,18 934,24 932,24 932,26 924,26 924,18 926,18 926,22 930,22 930,18 928,18 928,16 932,16 932,18 
			"/>
	<rect x="990" y="18" width="4" height="4"/>
	<polygon class="st1" points="998,18 998,24 996,24 996,26 988,26 988,18 990,18 990,22 994,22 994,18 992,18 992,16 996,16 996,18 
			"/>
	<rect x="1054" y="18" width="4" height="4"/>
	<polygon class="st1" points="1062,18 1062,24 1060,24 1060,26 1052,26 1052,18 1054,18 1054,22 1058,22 1058,18 1056,18 1056,16 
		1060,16 1060,18 	"/>
	<rect x="1116" y="18" width="4" height="4"/>
	<polygon class="st1" points="1124,18 1124,24 1122,24 1122,26 1114,26 1114,18 1116,18 1116,22 1120,22 1120,18 1118,18 1118,16 
		1122,16 1122,18 	"/>
	<rect x="1178" y="18" width="4" height="4"/>
	<polygon class="st1" points="1186,18 1186,24 1184,24 1184,26 1176,26 1176,18 1178,18 1178,22 1182,22 1182,18 1180,18 1180,16 
		1184,16 1184,18 	"/>
	<g>
		<polygon class="st2" points="112,32 112,36 108,36 108,40 100,40 100,38 106,38 106,34 102,34 102,32 		"/>
		<rect x="118" y="24" class="st4" width="2" height="2"/>
		<rect x="114" y="28" class="st4" width="2" height="2"/>
		<rect x="114" y="32" class="st4" width="2" height="2"/>
		<rect x="114" y="36" class="st4" width="2" height="2"/>
		<rect x="118" y="34" class="st4" width="2" height="2"/>
		<rect x="120" y="36" class="st4" width="2" height="2"/>
		<rect x="116" y="42" class="st4" width="2" height="2"/>
		<rect x="118" y="46" class="st4" width="2" height="2"/>
		<g>
			<polygon class="st5" points="124,34 124,38 122,38 122,36 120,36 120,34 			"/>
			<polygon class="st5" points="118,30 116,30 116,26 120,26 120,28 118,28 			"/>
			<rect x="114" y="30" class="st5" width="2" height="2"/>
			<rect x="116" y="44" class="st5" width="4" height="2"/>
			<polygon class="st5" points="118,36 120,36 120,38 116,38 116,36 114,36 114,38 116,38 116,44 114,44 114,40 112,40 112,38 
				108,38 108,36 112,36 112,32 114,32 114,34 118,34 			"/>
		</g>
		<rect x="100" y="34" class="st3" width="6" height="4"/>
	</g>
	<g>
		<polygon class="st2" points="176,32 176,36 172,36 172,40 164,40 164,38 170,38 170,34 166,34 166,32 		"/>
		<rect x="182" y="24" class="st4" width="2" height="2"/>
		<rect x="178" y="28" class="st4" width="2" height="2"/>
		<rect x="178" y="32" class="st4" width="2" height="2"/>
		<rect x="178" y="36" class="st4" width="2" height="2"/>
		<rect x="182" y="34" class="st4" width="2" height="2"/>
		<rect x="184" y="36" class="st4" width="2" height="2"/>
		<rect x="180" y="42" class="st4" width="2" height="2"/>
		<rect x="182" y="46" class="st4" width="2" height="2"/>
		<g>
			<polygon class="st5" points="188,34 188,38 186,38 186,36 184,36 184,34 			"/>
			<polygon class="st5" points="182,30 180,30 180,26 184,26 184,28 182,28 			"/>
			<rect x="178" y="30" class="st5" width="2" height="2"/>
			<rect x="180" y="44" class="st5" width="4" height="2"/>
			<polygon class="st5" points="182,36 184,36 184,38 180,38 180,36 178,36 178,38 180,38 180,44 178,44 178,40 176,40 176,38 
				172,38 172,36 176,36 176,32 178,32 178,34 182,34 			"/>
		</g>
		<rect x="164" y="34" class="st3" width="6" height="4"/>
	</g>
	<g>
		<polygon class="st2" points="240,32 240,36 236,36 236,40 228,40 228,38 234,38 234,34 230,34 230,32 		"/>
		<rect x="246" y="24" class="st4" width="2" height="2"/>
		<rect x="242" y="28" class="st4" width="2" height="2"/>
		<rect x="242" y="32" class="st4" width="2" height="2"/>
		<rect x="242" y="36" class="st4" width="2" height="2"/>
		<rect x="246" y="34" class="st4" width="2" height="2"/>
		<rect x="248" y="36" class="st4" width="2" height="2"/>
		<rect x="244" y="42" class="st4" width="2" height="2"/>
		<rect x="246" y="46" class="st4" width="2" height="2"/>
		<g>
			<polygon class="st5" points="252,34 252,38 250,38 250,36 248,36 248,34 			"/>
			<polygon class="st5" points="246,30 244,30 244,26 248,26 248,28 246,28 			"/>
			<rect x="242" y="30" class="st5" width="2" height="2"/>
			<rect x="244" y="44" class="st5" width="4" height="2"/>
			<polygon class="st5" points="246,36 248,36 248,38 244,38 244,36 242,36 242,38 244,38 244,44 242,44 242,40 240,40 240,38 
				236,38 236,36 240,36 240,32 242,32 242,34 246,34 			"/>
		</g>
		<rect x="228" y="34" class="st3" width="6" height="4"/>
	</g>
	<g>
		<polygon class="st2" points="304,30 304,34 300,34 300,38 292,38 292,36 298,36 298,32 294,32 294,30 		"/>
		<rect x="310" y="22" class="st4" width="2" height="2"/>
		<rect x="306" y="26" class="st4" width="2" height="2"/>
		<rect x="306" y="30" class="st4" width="2" height="2"/>
		<rect x="306" y="34" class="st4" width="2" height="2"/>
		<rect x="310" y="32" class="st4" width="2" height="2"/>
		<rect x="312" y="34" class="st4" width="2" height="2"/>
		<rect x="308" y="40" class="st4" width="2" height="2"/>
		<rect x="310" y="44" class="st4" width="2" height="2"/>
		<g>
			<polygon class="st5" points="316,32 316,36 314,36 314,34 312,34 312,32 			"/>
			<polygon class="st5" points="310,28 308,28 308,24 312,24 312,26 310,26 			"/>
			<rect x="306" y="28" class="st5" width="2" height="2"/>
			<rect x="308" y="42" class="st5" width="4" height="2"/>
			<polygon class="st5" points="310,34 312,34 312,36 308,36 308,34 306,34 306,36 308,36 308,42 306,42 306,38 304,38 304,36 
				300,36 300,34 304,34 304,30 306,30 306,32 310,32 			"/>
		</g>
		<rect x="292" y="32" class="st3" width="6" height="4"/>
	</g>
	<g>
		<polygon class="st2" points="368,30 368,34 364,34 364,38 356,38 356,36 362,36 362,32 358,32 358,30 		"/>
		<rect x="374" y="22" class="st4" width="2" height="2"/>
		<rect x="370" y="26" class="st4" width="2" height="2"/>
		<rect x="370" y="30" class="st4" width="2" height="2"/>
		<rect x="370" y="34" class="st4" width="2" height="2"/>
		<rect x="374" y="32" class="st4" width="2" height="2"/>
		<rect x="376" y="34" class="st4" width="2" height="2"/>
		<rect x="372" y="40" class="st4" width="2" height="2"/>
		<rect x="374" y="44" class="st4" width="2" height="2"/>
		<g>
			<polygon class="st5" points="380,32 380,36 378,36 378,34 376,34 376,32 			"/>
			<polygon class="st5" points="374,28 372,28 372,24 376,24 376,26 374,26 			"/>
			<rect x="370" y="28" class="st5" width="2" height="2"/>
			<rect x="372" y="42" class="st5" width="4" height="2"/>
			<polygon class="st5" points="374,34 376,34 376,36 372,36 372,34 370,34 370,36 372,36 372,42 370,42 370,38 368,38 368,36 
				364,36 364,34 368,34 368,30 370,30 370,32 374,32 			"/>
		</g>
		<rect x="356" y="32" class="st3" width="6" height="4"/>
	</g>
	<g>
		<polygon class="st2" points="430,30 430,34 426,34 426,38 418,38 418,36 424,36 424,32 420,32 420,30 		"/>
		<rect x="436" y="22" class="st4" width="2" height="2"/>
		<rect x="432" y="26" class="st4" width="2" height="2"/>
		<rect x="432" y="30" class="st4" width="2" height="2"/>
		<rect x="432" y="34" class="st4" width="2" height="2"/>
		<rect x="436" y="32" class="st4" width="2" height="2"/>
		<rect x="438" y="34" class="st4" width="2" height="2"/>
		<rect x="434" y="40" class="st4" width="2" height="2"/>
		<rect x="436" y="44" class="st4" width="2" height="2"/>
		<g>
			<polygon class="st5" points="442,32 442,36 440,36 440,34 438,34 438,32 			"/>
			<polygon class="st5" points="436,28 434,28 434,24 438,24 438,26 436,26 			"/>
			<rect x="432" y="28" class="st5" width="2" height="2"/>
			<rect x="434" y="42" class="st5" width="4" height="2"/>
			<polygon class="st5" points="436,34 438,34 438,36 434,36 434,34 432,34 432,36 434,36 434,42 432,42 432,38 430,38 430,36 
				426,36 426,34 430,34 430,30 432,30 432,32 436,32 			"/>
		</g>
		<rect x="418" y="32" class="st3" width="6" height="4"/>
	</g>
	<g>
		<polygon class="st2" points="492,32 492,36 488,36 488,40 480,40 480,38 486,38 486,34 482,34 482,32 		"/>
		<rect x="498" y="24" class="st4" width="2" height="2"/>
		<rect x="494" y="28" class="st4" width="2" height="2"/>
		<rect x="494" y="32" class="st4" width="2" height="2"/>
		<rect x="494" y="36" class="st4" width="2" height="2"/>
		<rect x="498" y="34" class="st4" width="2" height="2"/>
		<rect x="500" y="36" class="st4" width="2" height="2"/>
		<rect x="496" y="42" class="st4" width="2" height="2"/>
		<rect x="498" y="46" class="st4" width="2" height="2"/>
		<g>
			<polygon class="st5" points="504,34 504,38 502,38 502,36 500,36 500,34 			"/>
			<polygon class="st5" points="498,30 496,30 496,26 500,26 500,28 498,28 			"/>
			<rect x="494" y="30" class="st5" width="2" height="2"/>
			<rect x="496" y="44" class="st5" width="4" height="2"/>
			<polygon class="st5" points="498,36 500,36 500,38 496,38 496,36 494,36 494,38 496,38 496,44 494,44 494,40 492,40 492,38 
				488,38 488,36 492,36 492,32 494,32 494,34 498,34 			"/>
		</g>
		<rect x="480" y="34" class="st3" width="6" height="4"/>
	</g>
	<g>
		<polygon class="st2" points="556,32 556,36 552,36 552,40 544,40 544,38 550,38 550,34 546,34 546,32 		"/>
		<rect x="562" y="24" class="st4" width="2" height="2"/>
		<rect x="558" y="28" class="st4" width="2" height="2"/>
		<rect x="558" y="32" class="st4" width="2" height="2"/>
		<rect x="558" y="36" class="st4" width="2" height="2"/>
		<rect x="562" y="34" class="st4" width="2" height="2"/>
		<rect x="564" y="36" class="st4" width="2" height="2"/>
		<rect x="560" y="42" class="st4" width="2" height="2"/>
		<rect x="562" y="46" class="st4" width="2" height="2"/>
		<g>
			<polygon class="st5" points="568,34 568,38 566,38 566,36 564,36 564,34 			"/>
			<polygon class="st5" points="562,30 560,30 560,26 564,26 564,28 562,28 			"/>
			<rect x="558" y="30" class="st5" width="2" height="2"/>
			<rect x="560" y="44" class="st5" width="4" height="2"/>
			<polygon class="st5" points="562,36 564,36 564,38 560,38 560,36 558,36 558,38 560,38 560,44 558,44 558,40 556,40 556,38 
				552,38 552,36 556,36 556,32 558,32 558,34 562,34 			"/>
		</g>
		<rect x="544" y="34" class="st3" width="6" height="4"/>
	</g>
	<g>
		<polygon class="st2" points="620,32 620,36 616,36 616,40 608,40 608,38 614,38 614,34 610,34 610,32 		"/>
		<rect x="626" y="24" class="st4" width="2" height="2"/>
		<rect x="622" y="28" class="st4" width="2" height="2"/>
		<rect x="622" y="32" class="st4" width="2" height="2"/>
		<rect x="622" y="36" class="st4" width="2" height="2"/>
		<rect x="626" y="34" class="st4" width="2" height="2"/>
		<rect x="628" y="36" class="st4" width="2" height="2"/>
		<rect x="624" y="42" class="st4" width="2" height="2"/>
		<rect x="626" y="46" class="st4" width="2" height="2"/>
		<g>
			<polygon class="st5" points="632,34 632,38 630,38 630,36 628,36 628,34 			"/>
			<polygon class="st5" points="626,30 624,30 624,26 628,26 628,28 626,28 			"/>
			<rect x="622" y="30" class="st5" width="2" height="2"/>
			<rect x="624" y="44" class="st5" width="4" height="2"/>
			<polygon class="st5" points="626,36 628,36 628,38 624,38 624,36 622,36 622,38 624,38 624,44 622,44 622,40 620,40 620,38 
				616,38 616,36 620,36 620,32 622,32 622,34 626,34 			"/>
		</g>
		<rect x="608" y="34" class="st3" width="6" height="4"/>
	</g>
	<g>
		<polygon class="st2" points="684,30 684,34 680,34 680,38 672,38 672,36 678,36 678,32 674,32 674,30 		"/>
		<rect x="690" y="22" class="st4" width="2" height="2"/>
		<rect x="686" y="26" class="st4" width="2" height="2"/>
		<rect x="686" y="30" class="st4" width="2" height="2"/>
		<rect x="686" y="34" class="st4" width="2" height="2"/>
		<rect x="690" y="32" class="st4" width="2" height="2"/>
		<rect x="692" y="34" class="st4" width="2" height="2"/>
		<rect x="688" y="40" class="st4" width="2" height="2"/>
		<rect x="690" y="44" class="st4" width="2" height="2"/>
		<g>
			<polygon class="st5" points="696,32 696,36 694,36 694,34 692,34 692,32 			"/>
			<polygon class="st5" points="690,28 688,28 688,24 692,24 692,26 690,26 			"/>
			<rect x="686" y="28" class="st5" width="2" height="2"/>
			<rect x="688" y="42" class="st5" width="4" height="2"/>
			<polygon class="st5" points="690,34 692,34 692,36 688,36 688,34 686,34 686,36 688,36 688,42 686,42 686,38 684,38 684,36 
				680,36 680,34 684,34 684,30 686,30 686,32 690,32 			"/>
		</g>
		<rect x="672" y="32" class="st3" width="6" height="4"/>
	</g>
	<g>
		<polygon class="st2" points="750,32 750,36 746,36 746,40 738,40 738,38 744,38 744,34 740,34 740,32 		"/>
		<rect x="756" y="24" class="st4" width="2" height="2"/>
		<rect x="752" y="28" class="st4" width="2" height="2"/>
		<rect x="752" y="32" class="st4" width="2" height="2"/>
		<rect x="752" y="36" class="st4" width="2" height="2"/>
		<rect x="756" y="34" class="st4" width="2" height="2"/>
		<rect x="758" y="36" class="st4" width="2" height="2"/>
		<rect x="754" y="42" class="st4" width="2" height="2"/>
		<rect x="756" y="46" class="st4" width="2" height="2"/>
		<g>
			<polygon class="st5" points="762,34 762,38 760,38 760,36 758,36 758,34 			"/>
			<polygon class="st5" points="756,30 754,30 754,26 758,26 758,28 756,28 			"/>
			<rect x="752" y="30" class="st5" width="2" height="2"/>
			<rect x="754" y="44" class="st5" width="4" height="2"/>
			<polygon class="st5" points="756,36 758,36 758,38 754,38 754,36 752,36 752,38 754,38 754,44 752,44 752,40 750,40 750,38 
				746,38 746,36 750,36 750,32 752,32 752,34 756,34 			"/>
		</g>
		<rect x="738" y="34" class="st3" width="6" height="4"/>
	</g>
	<g>
		<polygon class="st2" points="814,32 814,36 810,36 810,40 802,40 802,38 808,38 808,34 804,34 804,32 		"/>
		<rect x="820" y="24" class="st4" width="2" height="2"/>
		<rect x="816" y="28" class="st4" width="2" height="2"/>
		<rect x="816" y="32" class="st4" width="2" height="2"/>
		<rect x="816" y="36" class="st4" width="2" height="2"/>
		<rect x="820" y="34" class="st4" width="2" height="2"/>
		<rect x="822" y="36" class="st4" width="2" height="2"/>
		<rect x="818" y="42" class="st4" width="2" height="2"/>
		<rect x="820" y="46" class="st4" width="2" height="2"/>
		<g>
			<polygon class="st5" points="826,34 826,38 824,38 824,36 822,36 822,34 			"/>
			<polygon class="st5" points="820,30 818,30 818,26 822,26 822,28 820,28 			"/>
			<rect x="816" y="30" class="st5" width="2" height="2"/>
			<rect x="818" y="44" class="st5" width="4" height="2"/>
			<polygon class="st5" points="820,36 822,36 822,38 818,38 818,36 816,36 816,38 818,38 818,44 816,44 816,40 814,40 814,38 
				810,38 810,36 814,36 814,32 816,32 816,34 820,34 			"/>
		</g>
		<rect x="802" y="34" class="st3" width="6" height="4"/>
	</g>
	<g>
		<polygon class="st2" points="878,32 878,36 874,36 874,40 866,40 866,38 872,38 872,34 868,34 868,32 		"/>
		<rect x="884" y="24" class="st4" width="2" height="2"/>
		<rect x="880" y="28" class="st4" width="2" height="2"/>
		<rect x="880" y="32" class="st4" width="2" height="2"/>
		<rect x="880" y="36" class="st4" width="2" height="2"/>
		<rect x="884" y="34" class="st4" width="2" height="2"/>
		<rect x="886" y="36" class="st4" width="2" height="2"/>
		<rect x="882" y="42" class="st4" width="2" height="2"/>
		<rect x="884" y="46" class="st4" width="2" height="2"/>
		<g>
			<polygon class="st5" points="890,34 890,38 888,38 888,36 886,36 886,34 			"/>
			<polygon class="st5" points="884,30 882,30 882,26 886,26 886,28 884,28 			"/>
			<rect x="880" y="30" class="st5" width="2" height="2"/>
			<rect x="882" y="44" class="st5" width="4" height="2"/>
			<polygon class="st5" points="884,36 886,36 886,38 882,38 882,36 880,36 880,38 882,38 882,44 880,44 880,40 878,40 878,38 
				874,38 874,36 878,36 878,32 880,32 880,34 884,34 			"/>
		</g>
		<rect x="866" y="34" class="st3" width="6" height="4"/>
	</g>
	<g>
		<polygon class="st2" points="942,32 942,36 938,36 938,40 930,40 930,38 936,38 936,34 932,34 932,32 		"/>
		<rect x="948" y="24" class="st4" width="2" height="2"/>
		<rect x="944" y="28" class="st4" width="2" height="2"/>
		<rect x="944" y="32" class="st4" width="2" height="2"/>
		<rect x="944" y="36" class="st4" width="2" height="2"/>
		<rect x="948" y="34" class="st4" width="2" height="2"/>
		<rect x="950" y="36" class="st4" width="2" height="2"/>
		<rect x="946" y="42" class="st4" width="2" height="2"/>
		<rect x="948" y="46" class="st4" width="2" height="2"/>
		<g>
			<polygon class="st5" points="954,34 954,38 952,38 952,36 950,36 950,34 			"/>
			<polygon class="st5" points="948,30 946,30 946,26 950,26 950,28 948,28 			"/>
			<rect x="944" y="30" class="st5" width="2" height="2"/>
			<rect x="946" y="44" class="st5" width="4" height="2"/>
			<polygon class="st5" points="948,36 950,36 950,38 946,38 946,36 944,36 944,38 946,38 946,44 944,44 944,40 942,40 942,38 
				938,38 938,36 942,36 942,32 944,32 944,34 948,34 			"/>
		</g>
		<rect x="930" y="34" class="st3" width="6" height="4"/>
	</g>
	<g>
		<polygon class="st2" points="1006,32 1006,36 1002,36 1002,40 994,40 994,38 1000,38 1000,34 996,34 996,32 		"/>
		<rect x="1012" y="24" class="st4" width="2" height="2"/>
		<rect x="1008" y="28" class="st4" width="2" height="2"/>
		<rect x="1008" y="32" class="st4" width="2" height="2"/>
		<rect x="1008" y="36" class="st4" width="2" height="2"/>
		<rect x="1012" y="34" class="st4" width="2" height="2"/>
		<rect x="1014" y="36" class="st4" width="2" height="2"/>
		<rect x="1010" y="42" class="st4" width="2" height="2"/>
		<rect x="1012" y="46" class="st4" width="2" height="2"/>
		<g>
			<polygon class="st5" points="1018,34 1018,38 1016,38 1016,36 1014,36 1014,34 			"/>
			<polygon class="st5" points="1012,30 1010,30 1010,26 1014,26 1014,28 1012,28 			"/>
			<rect x="1008" y="30" class="st5" width="2" height="2"/>
			<rect x="1010" y="44" class="st5" width="4" height="2"/>
			<polygon class="st5" points="1012,36 1014,36 1014,38 1010,38 1010,36 1008,36 1008,38 1010,38 1010,44 1008,44 1008,40 1006,40 
				1006,38 1002,38 1002,36 1006,36 1006,32 1008,32 1008,34 1012,34 			"/>
		</g>
		<rect x="994" y="34" class="st3" width="6" height="4"/>
	</g>
	<g>
		<rect x="88" class="st8" width="6" height="6"/>
		<rect x="88" y="10" width="2" height="2"/>
		<rect x="86" y="12" width="2" height="2"/>
		<rect x="90" y="6" width="2" height="4"/>
	</g>
	<g>
		<rect x="96" width="6" height="6"/>
		<rect x="96" y="10" width="2" height="2"/>
		<rect x="94" y="12" width="2" height="2"/>
		<rect x="98" y="6" width="2" height="4"/>
	</g>
	<g>
		<rect x="154" class="st9" width="6" height="6"/>
		<rect x="154" y="10" width="2" height="2"/>
		<rect x="152" y="12" width="2" height="2"/>
		<rect x="156" y="6" width="2" height="4"/>
	</g>
	<g>
		<rect x="162" class="st10" width="6" height="6"/>
		<rect x="162" y="10" width="2" height="2"/>
		<rect x="160" y="12" width="2" height="2"/>
		<rect x="164" y="6" width="2" height="4"/>
	</g>
	<polygon class="st0" points="92,52 90,52 90,50 86,50 86,48 92,48 92,44 88,44 88,42 84,42 84,40 82,40 82,34 80,34 80,30 82,30 
		82,28 84,28 84,24 80,24 80,22 78,22 78,20 80,20 80,18 82,18 82,16 84,16 84,14 98,14 98,18 94,18 94,26 98,26 98,32 102,32 
		102,34 100,34 100,40 98,40 98,48 96,48 96,56 92,56 	"/>
	<polygon class="st7" points="100,62 100,64 78,64 78,62 80,62 80,60 84,60 84,58 90,58 90,56 96,56 96,58 98,58 98,62 	"/>
	<polygon class="st7" points="160,62 160,64 138,64 138,62 140,62 140,60 144,60 144,58 158,58 158,62 	"/>
	<polygon class="st7" points="220,62 220,64 198,64 198,62 200,62 200,60 204,60 204,58 218,58 218,62 	"/>
	<polygon class="st7" points="280,62 280,64 258,64 258,62 260,62 260,60 264,60 264,58 270,58 270,56 276,56 276,58 278,58 278,62 
			"/>
	<polygon class="st6" points="94,56 94,58 72,58 72,56 74,56 74,54 78,54 78,52 84,52 84,50 90,50 90,52 92,52 92,56 	"/>
	<polygon class="st6" points="164,56 164,58 142,58 142,56 144,56 144,54 148,54 148,52 154,52 154,50 160,50 160,52 162,52 162,56 
			"/>
	<polygon class="st0" points="158,50 154,50 154,52 150,52 150,50 152,50 152,46 150,46 150,44 148,44 148,40 146,40 146,34 144,34 
		144,30 146,30 146,28 148,28 148,24 144,24 144,22 142,22 142,20 144,20 144,18 146,18 146,16 148,16 148,14 162,14 162,18 158,18 
		158,26 162,26 162,32 166,32 166,34 164,34 164,40 162,40 161.9,42 159.9,42 160,46 158,46 	"/>
	<polygon class="st0" points="218,50 216,50 216,54 210,54 210,52 212,52 212,48 214,48 214,44 216,44 216,42 212,42 212,40 210,40 
		210,30 212,30 212,28 214,28 214,24 210,24 210,22 208,22 208,20 210,20 210,18 212,18 212,16 214,16 214,14 228,14 228,18 224,18 
		224,26 228,26 228,28 226,28 226,32 230,32 230,34 228,34 228,38 226,38 226,40 228,40 228,42 230,42 230,48 228,48 228,50 222,50 
		222,48 224,48 224,46 226,46 226,44 220,44 220,46 218,46 	"/>
	<g>
		<rect x="218" class="st11" width="6" height="6"/>
		<rect x="218" y="10" width="2" height="4"/>
		<rect x="220" y="6" width="2" height="4"/>
	</g>
	<g>
		<rect x="282" class="st12" width="6" height="6"/>
		<rect x="284" y="6" width="2" height="8"/>
	</g>
	<g>
		<rect x="346" class="st13" width="6" height="6"/>
		<rect x="348" y="6" width="2" height="8"/>
	</g>
	<g>
		<rect x="290" class="st14" width="6" height="6"/>
		<rect x="292" y="6" width="2" height="2"/>
		<rect x="292" y="12" width="2" height="2"/>
		<rect x="290" y="8" width="2" height="4"/>
	</g>
	<g>
		<rect x="540" class="st15" width="6" height="6"/>
		<rect x="542" y="6" width="2" height="2"/>
		<rect x="542" y="12" width="2" height="2"/>
		<rect x="540" y="8" width="2" height="4"/>
	</g>
	<g>
		<rect x="226" class="st16" width="6" height="6"/>
		<rect x="226" y="10" width="2" height="4"/>
		<rect x="228" y="6" width="2" height="4"/>
	</g>
	<g>
		<rect x="356" class="st17" width="6" height="6"/>
		<rect x="356" y="8" width="2" height="6"/>
		<rect x="358" y="6" width="2" height="2"/>
	</g>
	<g>
		<rect x="418" class="st18" width="6" height="6"/>
		<rect x="418" y="8" width="2" height="6"/>
		<rect x="420" y="6" width="2" height="2"/>
	</g>
	<polygon class="st6" points="230,56 230,58 208,58 208,56 210,56 210,54 216,54 216,52 220,52 220,50 226,50 226,52 228,52 228,56 
			"/>
	<polygon class="st6" points="298,56 298,58 276,58 276,56 278,56 278,54 282,54 282,52 288,52 288,50 294,50 294,52 296,52 296,56 
			"/>
	<polygon class="st6" points="366,58 366,60 344,60 344,58 346,58 346,56 350,56 350,54 356,54 356,52 362,52 362,54 364,54 364,58 
			"/>
	<polygon class="st6" points="428,62 428,64 406,64 406,62 408,62 408,60 412,60 412,58 418,58 418,56 424,56 424,58 426,58 426,62 
			"/>
	<polygon class="st7" points="342,62 342,64 320,64 320,62 322,62 322,60 326,60 326,58 332,58 332,56 338,56 338,58 340,58 340,62 
			"/>
	<polygon class="st7" points="408,58 408,60 386,60 386,58 388,58 388,56 392,56 392,54 398,54 398,52 404,52 404,54 406,54 406,58 
			"/>
	<polygon class="st7" points="478,56 478,58 456,58 456,56 458,56 458,54 462,54 462,52 468,52 468,50 474,50 474,52 476,52 476,56 
			"/>
	<polygon class="st7" points="548,56 548,58 526,58 526,56 528,56 528,54 532,54 532,52 538,52 538,50 544,50 544,52 546,52 546,56 
			"/>
	<polygon class="st0" points="296,44 296,46 294,46 294,50 290,50 290,46 286,46 286,44 284,44 284,46 282,46 282,50 280,50 280,54 
		278,54 278,56 272,56 272,54 274,54 274,52 276,52 276,48 278,48 278,44 280,44 280,42 278,42 278,40 274,40 274,32 276,32 276,30 
		278,30 278,28 280,28 280,24 276,24 276,22 274,22 274,20 276,20 276,18 278,18 278,16 280,16 280,14 294,14 294,18 290,18 290,26 
		294,26 294,32 292,32 292,40 290,40 290,42 292,42 292,44 	"/>
	<polygon class="st19" points="366,46 366,48 364,48 364,50 362,50 362,52 358,52 358,50 360,50 360,48 358,48 358,46 354,46 
		354,44 346,44 346,46 344,46 344,50 342,50 342,52 340,52 340,54 338,54 338,56 334,56 334,52 336,52 336,50 338,50 338,48 340,48 
		340,46 342,46 342,40 338,40 338,32 340,32 340,30 342,30 342,28 344,28 344,24 340,24 340,22 338,22 338,20 340,20 340,18 342,18 
		342,16 344,16 344,14 358,14 358,18 354,18 354,26 358,26 358,32 356,32 356,40 360,40 360,42 362,42 362,44 364,44 364,46 	"/>
	<polygon class="st19" points="422,52 422,48 420,48 420,44 418,44 418,42 416,42 416,40 418,40 418,32 420,32 420,30 418,30 
		418,26 414,26 414,18 418,18 418,14 404,14 404,16 402,16 402,18 400,18 400,20 398,20 398,22 400,22 400,24 404,24 404,28 402,28 
		402,30 400,30 400,40 404,40 404,42 406,42 406,46 404,46 404,48 402,48 402,50 400,50 400,52 402,52 406,52 408,52 408,50 410,50 
		410,46 412,46 412,44 414,44 414,46 416,46 416,50 418,50 418,54 420,54 420,56 424,56 424,52 	"/>
	<g>
		<rect x="410" class="st20" width="6" height="6"/>
		<rect x="410" y="12" width="2" height="2"/>
		<rect x="412" y="6" width="2" height="6"/>
	</g>
	<g>
		<rect x="530" class="st21" width="6" height="6"/>
		<rect x="534" y="12" width="2" height="2"/>
		<rect x="532" y="6" width="2" height="6"/>
	</g>
	<polygon class="st6" points="484,62 484,64 462,64 462,62 464,62 464,60 468,60 468,58 474,58 474,56 480,56 480,58 482,58 482,62 
			"/>
	<g>
		<rect x="470" class="st21" width="6" height="6"/>
		<rect x="470" y="10" width="2" height="4"/>
		<rect x="472" y="6" width="2" height="4"/>
	</g>
	<g>
		<rect x="478" class="st22" width="6" height="6"/>
		<rect x="480" y="6" width="2" height="2"/>
		<rect x="476" y="10" width="2" height="2"/>
		<rect x="478" y="12" width="2" height="2"/>
		<rect x="478" y="8" width="2" height="2"/>
	</g>
	<polygon class="st0" points="482,32 482,34 480,34 480,40 478,40 478,44 476,44 476,48 478,48 478,54 480,54 480,56 476,56 476,52 
		474,52 474,50 470,50 470,46 468,46 468,44 466,44 466,42 464,42 464,40 462,40 462,30 464,30 464,28 466,28 466,24 462,24 462,22 
		460,22 460,20 462,20 462,18 464,18 464,16 466,16 466,14 480,14 480,18 476,18 476,26 480,26 480,28 476,28 476,30 478,30 478,32 
			"/>
	<polygon class="st6" points="544,62 544,64 522,64 522,62 524,62 524,60 528,60 528,58 534,58 534,56 540,56 540,58 542,58 542,62 
			"/>
	<polygon class="st7" points="682,56 682,58 660,58 660,56 662,56 662,54 666,54 666,52 672,52 672,50 678,50 678,52 680,52 680,56 
			"/>
	<polygon class="st7" points="750,58 750,60 728,60 728,58 730,58 730,56 734,56 734,54 740,54 740,52 746,52 746,54 748,54 748,58 
			"/>
	<polygon class="st7" points="812,60 812,62 790,62 790,60 792,60 792,58 796,58 796,56 802,56 802,54 808,54 808,56 810,56 810,60 
			"/>
	<polygon class="st6" points="664,62 664,64 642,64 642,62 644,62 644,60 648,60 648,58 654,58 654,56 660,56 660,58 662,58 662,62 
			"/>
	<polygon class="st6" points="726,62 726,64 704,64 704,62 706,62 706,60 710,60 710,58 716,58 716,56 722,56 722,58 724,58 724,62 
			"/>
	<polygon class="st6" points="790,62 790,64 768,64 768,62 770,62 770,60 774,60 774,58 780,58 780,56 786,56 786,58 788,58 788,62 
			"/>
	<polygon class="st6" points="854,62 854,64 832,64 832,62 834,62 834,60 838,60 838,58 844,58 844,56 850,56 850,58 852,58 852,62 
			"/>
	<polygon class="st7" points="614,56 614,58 594,58 594,54 598,54 598,52 604,52 604,50 610,50 610,52 612,52 612,56 	"/>
	<polygon class="st6" points="604,62 604,64 582,64 582,62 584,62 584,60 588,60 588,58 594,58 594,56 600,56 600,58 602,58 602,62 
			"/>
	<polygon class="st0" points="548,42 548,48 546,48 546,50 540,50 540,48 542,48 542,44 538,44 538,52 534,52 534,50 532,50 532,46 
		530,46 530,42 528,42 528,40 526,40 526,30 528,30 528,28 530,28 530,24 526,24 526,22 524,22 524,20 526,20 526,18 528,18 528,16 
		530,16 530,14 544,14 544,18 540,18 540,26 544,26 544,28 542,28 542,32 546,32 546,34 544,34 544,40 546,40 546,42 	"/>
	<g>
		<rect x="594" class="st23" width="6" height="6"/>
		<rect x="594" y="12" width="2" height="2"/>
		<rect x="596" y="6" width="2" height="6"/>
	</g>
	<g>
		<rect x="730" class="st7" width="6" height="6"/>
		<rect x="734" y="12" width="2" height="2"/>
		<rect x="732" y="6" width="2" height="6"/>
	</g>
	<g>
		<rect x="722" class="st6" width="6" height="6"/>
		<rect x="726" y="12" width="2" height="2"/>
		<rect x="724" y="6" width="2" height="6"/>
	</g>
	<g>
		<rect x="794" class="st7" width="6" height="6"/>
		<rect x="798" y="12" width="2" height="2"/>
		<rect x="796" y="6" width="2" height="6"/>
	</g>
	<g>
		<rect x="786" class="st6" width="6" height="6"/>
		<rect x="790" y="12" width="2" height="2"/>
		<rect x="788" y="6" width="2" height="6"/>
	</g>
	<g>
		<rect x="858" class="st7" width="6" height="6"/>
		<rect x="862" y="12" width="2" height="2"/>
		<rect x="860" y="6" width="2" height="6"/>
	</g>
	<g>
		<rect x="850" class="st6" width="6" height="6"/>
		<rect x="854" y="12" width="2" height="2"/>
		<rect x="852" y="6" width="2" height="6"/>
	</g>
	<g>
		<rect x="922" class="st7" width="6" height="6"/>
		<rect x="926" y="12" width="2" height="2"/>
		<rect x="924" y="6" width="2" height="6"/>
	</g>
	<g>
		<rect x="914" class="st6" width="6" height="6"/>
		<rect x="918" y="12" width="2" height="2"/>
		<rect x="916" y="6" width="2" height="6"/>
	</g>
	<g>
		<rect x="986" class="st7" width="6" height="6"/>
		<rect x="990" y="12" width="2" height="2"/>
		<rect x="988" y="6" width="2" height="6"/>
	</g>
	<g>
		<rect x="978" class="st6" width="6" height="6"/>
		<rect x="982" y="12" width="2" height="2"/>
		<rect x="980" y="6" width="2" height="6"/>
	</g>
	<g>
		<rect x="1050" class="st7" width="6" height="6"/>
		<rect x="1054" y="12" width="2" height="2"/>
		<rect x="1052" y="6" width="2" height="6"/>
	</g>
	<g>
		<rect x="1042" class="st6" width="6" height="6"/>
		<rect x="1046" y="12" width="2" height="2"/>
		<rect x="1044" y="6" width="2" height="6"/>
	</g>
	<g>
		<rect x="1112" class="st7" width="6" height="6"/>
		<rect x="1116" y="12" width="2" height="2"/>
		<rect x="1114" y="6" width="2" height="6"/>
	</g>
	<g>
		<rect x="1104" class="st6" width="6" height="6"/>
		<rect x="1108" y="12" width="2" height="2"/>
		<rect x="1106" y="6" width="2" height="6"/>
	</g>
	<g>
		<rect x="1174" class="st7" width="6" height="6"/>
		<rect x="1178" y="12" width="2" height="2"/>
		<rect x="1176" y="6" width="2" height="6"/>
	</g>
	<g>
		<rect x="1166" class="st6" width="6" height="6"/>
		<rect x="1170" y="12" width="2" height="2"/>
		<rect x="1168" y="6" width="2" height="6"/>
	</g>
	<rect x="1240" y="18" width="4" height="4"/>
	<polygon class="st1" points="1248,18 1248,24 1246,24 1246,26 1238,26 1238,18 1240,18 1240,22 1244,22 1244,18 1242,18 1242,16 
		1246,16 1246,18 	"/>
	<g>
		<rect x="1236" class="st7" width="6" height="6"/>
		<rect x="1240" y="12" width="2" height="2"/>
		<rect x="1238" y="6" width="2" height="6"/>
	</g>
	<g>
		<rect x="1228" class="st6" width="6" height="6"/>
		<rect x="1232" y="12" width="2" height="2"/>
		<rect x="1230" y="6" width="2" height="6"/>
	</g>
	<g>
		<rect x="656" class="st24" width="6" height="6"/>
		<rect x="660" y="12" width="2" height="2"/>
		<rect x="658" y="6" width="2" height="8"/>
	</g>
	<g>
		<rect x="602" class="st12" width="6" height="6"/>
		<rect x="604" y="6" width="2" height="2"/>
		<rect x="604" y="10" width="2" height="4"/>
		<rect x="602" y="8" width="2" height="2"/>
	</g>
	<g>
		<rect x="666" class="st25" width="6" height="6"/>
		<rect x="668" y="6" width="2" height="2"/>
		<rect x="668" y="12" width="2" height="2"/>
		<rect x="666" y="8" width="2" height="6"/>
	</g>
	<polygon class="st0" points="612,42 612,48 610,48 610,50 606,50 606,48 608,48 608,44 606,44 606,42 604,42 604,40 600,40 600,42 
		598,42 598,54 594,54 594,44 592,44 592,42 590,42 590,34 588,34 588,28 590,28 590,24 586,24 586,22 584,22 584,20 586,20 586,18 
		588,18 588,16 590,16 590,14 604,14 604,18 600,18 600,26 604,26 604,30 606,30 606,32 610,32 610,34 608,34 608,40 610,40 610,42 
			"/>
	<polygon class="st0" points="680,46 680,48 678,48 678,50 674,50 674,48 676,48 676,46 674,46 674,44 670,44 670,42 668,42 668,40 
		664,40 664,46 662,46 662,54 660,54 660,56 656,56 656,52 658,52 658,46 660,46 660,42 658,42 658,40 656,40 656,38 654,38 654,34 
		652,34 652,30 654,30 654,28 656,28 656,24 652,24 652,22 650,22 650,20 652,20 652,18 654,18 654,16 656,16 656,14 670,14 670,18 
		666,18 666,26 670,26 670,30 674,30 674,32 672,32 672,38 674,38 674,40 676,40 676,44 678,44 678,46 	"/>
	<polygon class="st0" points="746,44 746,52 742,52 742,46 740,46 740,44 736,44 736,42 726,42 726,48 724,48 724,54 722,54 722,56 
		718,56 718,52 720,52 720,48 722,48 722,40 720,40 720,38 718,38 718,30 720,30 720,28 722,28 722,24 718,24 718,22 716,22 716,20 
		718,20 718,18 720,18 720,16 722,16 722,14 736,14 736,18 732,18 732,26 736,26 736,32 740,32 740,34 738,34 738,42 742,42 742,44 
			"/>
	<polygon class="st0" points="810,44 810,52 808,52 808,54 804,54 804,52 806,52 806,46 804,46 804,44 800,44 800,42 790,42 790,48 
		788,48 788,54 786,54 786,56 782,56 782,52 784,52 784,48 786,48 786,40 784,40 784,38 782,38 782,30 784,30 784,28 786,28 786,24 
		782,24 782,22 780,22 780,20 782,20 782,18 784,18 784,16 786,16 786,14 800,14 800,18 796,18 796,26 800,26 800,32 804,32 804,34 
		802,34 802,42 806,42 806,44 	"/>
	<polygon class="st0" points="872,46 872,52 870,52 870,56 866,56 866,52 868,52 868,46 866,46 866,44 864,44 864,42 854,42 854,48 
		852,48 852,54 850,54 850,56 846,56 846,52 848,52 848,48 850,48 850,40 848,40 848,38 846,38 846,30 848,30 848,28 850,28 850,24 
		846,24 846,22 844,22 844,20 846,20 846,18 848,18 848,16 850,16 850,14 864,14 864,18 860,18 860,26 864,26 864,32 868,32 868,34 
		866,34 866,42 870,42 870,46 	"/>
	<polygon class="st0" points="936,46 936,52 934,52 934,56 930,56 930,52 932,52 932,46 930,46 930,44 928,44 928,42 918,42 918,56 
		914,56 914,40 912,40 912,38 910,38 910,30 912,30 912,28 914,28 914,24 910,24 910,22 908,22 908,20 910,20 910,18 912,18 912,16 
		914,16 914,14 928,14 928,18 924,18 924,26 928,26 928,32 932,32 932,34 930,34 930,42 934,42 934,46 	"/>
	<polygon class="st0" points="994,44 994,50 996,50 996,56 992,56 992,50 990,50 990,44 988,44 988,42 982,42 982,56 978,56 978,40 
		976,40 976,38 974,38 974,30 976,30 976,28 978,28 978,24 974,24 974,22 972,22 972,20 974,20 974,18 976,18 976,16 978,16 978,14 
		992,14 992,18 988,18 988,26 992,26 992,32 996,32 996,34 994,34 994,42 992,42 992,44 	"/>
	<polygon class="st0" points="1056,44 1056,48 1058,48 1058,56 1054,56 1054,48 1052,48 1052,44 1050,44 1050,42 1046,42 1046,56 
		1042,56 1042,40 1040,40 1040,38 1038,38 1038,30 1040,30 1040,28 1042,28 1042,24 1038,24 1038,22 1036,22 1036,20 1038,20 
		1038,18 1040,18 1040,16 1042,16 1042,14 1056,14 1056,18 1052,18 1052,26 1056,26 1056,32 1060,32 1060,34 1058,34 1058,42 
		1054,42 1054,44 	"/>
	<polygon class="st0" points="1122,32 1122,34 1120,34 1120,42 1116,42 1116,46 1118,46 1118,50 1120,50 1120,56 1116,56 1116,50 
		1114,50 1114,46 1112,46 1112,42 1110,42 1110,56 1106,56 1106,42 1104,42 1104,40 1102,40 1102,38 1100,38 1100,30 1102,30 
		1102,28 1104,28 1104,24 1100,24 1100,22 1098,22 1098,20 1100,20 1100,18 1102,18 1102,16 1104,16 1104,14 1118,14 1118,18 
		1114,18 1114,26 1118,26 1118,32 	"/>
	<polygon class="st0" points="1184,32 1184,34 1182,34 1182,42 1182,42 1182,46 1180,46 1180,56 1176,56 1176,46 1178,46 1178,42 
		1172,42 1172,56 1168,56 1168,42 1166,42 1166,40 1164,40 1164,38 1162,38 1162,30 1164,30 1164,28 1166,28 1166,24 1162,24 
		1162,22 1160,22 1160,20 1162,20 1162,18 1164,18 1164,16 1166,16 1166,14 1180,14 1180,18 1176,18 1176,26 1180,26 1180,32 	"/>
	<polygon class="st0" points="1246,32 1246,34 1244,34 1244,42 1244,42 1244,46 1242,46 1242,56 1238,56 1238,46 1240,46 1240,42 
		1234,42 1234,56 1230,56 1230,42 1228,42 1228,40 1226,40 1226,38 1224,38 1224,30 1226,30 1226,28 1228,28 1228,24 1224,24 
		1224,22 1222,22 1222,20 1224,20 1224,18 1226,18 1226,16 1228,16 1228,14 1242,14 1242,18 1238,18 1238,26 1242,26 1242,32 	"/>
	<polygon class="st7" points="874,62 874,64 852,64 852,62 854,62 854,60 858,60 858,58 864,58 864,56 870,56 870,58 872,58 872,62 
			"/>
	<polygon class="st7" points="938,62 938,64 916,64 916,62 918,62 918,60 922,60 922,58 928,58 928,56 934,56 934,58 936,58 936,62 
			"/>
	<polygon class="st7" points="1064,62 1064,64 1040,64 1040,62 1042,62 1042,60 1046,60 1046,58 1052,58 1052,56 1058,56 1058,58 
		1060,58 1060,60 1062,60 1062,62 	"/>
	<polygon class="st7" points="1000,62 1000,64 978,64 978,62 980,62 980,60 984,60 984,58 990,58 990,56 996,56 996,58 998,58 
		998,62 	"/>
	<polygon class="st6" points="922,62 922,64 900,64 900,62 902,62 902,60 906,60 906,58 912,58 912,56 918,56 918,58 920,58 920,62 
			"/>
	<polygon class="st6" points="984,64 964,64 964,62 966,62 966,60 970,60 970,58 976,58 976,56 982,56 982,58 984,58 	"/>
	<g>
		<g>
			<polygon class="st2" points="1070,32 1070,36 1066,36 1066,40 1058,40 1058,38 1064,38 1064,34 1060,34 1060,32 			"/>
			<rect x="1076" y="24" class="st4" width="2" height="2"/>
			<rect x="1072" y="28" class="st4" width="2" height="2"/>
			<rect x="1072" y="32" class="st4" width="2" height="2"/>
			<rect x="1072" y="36" class="st4" width="2" height="2"/>
			<rect x="1076" y="34" class="st4" width="2" height="2"/>
			<rect x="1078" y="36" class="st4" width="2" height="2"/>
			<rect x="1074" y="42" class="st4" width="2" height="2"/>
			<rect x="1076" y="46" class="st4" width="2" height="2"/>
			<g>
				<polygon class="st5" points="1082,34 1082,38 1080,38 1080,36 1078,36 1078,34 				"/>
				<polygon class="st5" points="1076,30 1074,30 1074,26 1078,26 1078,28 1076,28 				"/>
				<rect x="1072" y="30" class="st5" width="2" height="2"/>
				<rect x="1074" y="44" class="st5" width="4" height="2"/>
				<polygon class="st5" points="1076,36 1078,36 1078,38 1074,38 1074,36 1072,36 1072,38 1074,38 1074,44 1072,44 1072,40 
					1070,40 1070,38 1066,38 1066,36 1070,36 1070,32 1072,32 1072,34 1076,34 				"/>
			</g>
			<rect x="1058" y="34" class="st3" width="6" height="4"/>
		</g>
		<rect x="1076" y="22" class="st26" width="4" height="2"/>
		<rect x="1082" y="34" class="st26" width="2" height="2"/>
		<rect x="1078" y="48" class="st26" width="2" height="2"/>
	</g>
	<g>
		<g>
			<polygon class="st2" points="1132,32 1132,36 1128,36 1128,40 1120,40 1120,38 1126,38 1126,34 1122,34 1122,32 			"/>
			<rect x="1138" y="24" class="st4" width="2" height="2"/>
			<rect x="1134" y="28" class="st4" width="2" height="2"/>
			<rect x="1134" y="32" class="st4" width="2" height="2"/>
			<rect x="1134" y="36" class="st4" width="2" height="2"/>
			<rect x="1138" y="34" class="st4" width="2" height="2"/>
			<rect x="1140" y="36" class="st4" width="2" height="2"/>
			<rect x="1136" y="42" class="st4" width="2" height="2"/>
			<rect x="1138" y="46" class="st4" width="2" height="2"/>
			<g>
				<polygon class="st5" points="1144,34 1144,38 1142,38 1142,36 1140,36 1140,34 				"/>
				<polygon class="st5" points="1138,30 1136,30 1136,26 1140,26 1140,28 1138,28 				"/>
				<rect x="1134" y="30" class="st5" width="2" height="2"/>
				<rect x="1136" y="44" class="st5" width="4" height="2"/>
				<polygon class="st5" points="1138,36 1140,36 1140,38 1136,38 1136,36 1134,36 1134,38 1136,38 1136,44 1134,44 1134,40 
					1132,40 1132,38 1128,38 1128,36 1132,36 1132,32 1134,32 1134,34 1138,34 				"/>
			</g>
			<rect x="1120" y="34" class="st3" width="6" height="4"/>
		</g>
		<polygon class="st26" points="1144,20 1144,22 1142,22 1142,24 1138,24 1138,22 1140,22 1140,20 		"/>
		<rect x="1144" y="34" class="st26" width="4" height="2"/>
		<polygon class="st26" points="1144,48 1144,50 1140,50 1140,46 1142,46 1142,48 		"/>
	</g>
	<g>
		<g>
			<polygon class="st2" points="1194,32 1194,36 1190,36 1190,40 1182,40 1182,38 1188,38 1188,34 1184,34 1184,32 			"/>
			<rect x="1200" y="24" class="st4" width="2" height="2"/>
			<rect x="1196" y="28" class="st4" width="2" height="2"/>
			<rect x="1196" y="32" class="st4" width="2" height="2"/>
			<rect x="1196" y="36" class="st4" width="2" height="2"/>
			<rect x="1200" y="34" class="st4" width="2" height="2"/>
			<rect x="1202" y="36" class="st4" width="2" height="2"/>
			<rect x="1198" y="42" class="st4" width="2" height="2"/>
			<rect x="1200" y="46" class="st4" width="2" height="2"/>
			<g>
				<polygon class="st5" points="1206,34 1206,38 1204,38 1204,36 1202,36 1202,34 				"/>
				<polygon class="st5" points="1200,30 1198,30 1198,26 1202,26 1202,28 1200,28 				"/>
				<rect x="1196" y="30" class="st5" width="2" height="2"/>
				<rect x="1198" y="44" class="st5" width="4" height="2"/>
				<polygon class="st5" points="1200,36 1202,36 1202,38 1198,38 1198,36 1196,36 1196,38 1198,38 1198,44 1196,44 1196,40 
					1194,40 1194,38 1190,38 1190,36 1194,36 1194,32 1196,32 1196,34 1200,34 				"/>
			</g>
			<rect x="1182" y="34" class="st3" width="6" height="4"/>
		</g>
		<polygon class="st26" points="1208,12 1208,16 1206,16 1206,20 1204,20 1204,24 1200,24 1200,22 1202,22 1202,18 1204,18 1204,14 
			1206,14 1206,12 		"/>
		<polygon class="st26" points="1208,48 1208,52 1206,52 1206,50 1202,50 1202,46 1204,46 1204,48 		"/>
		<polygon class="st26" points="1214,36 1214,38 1210,38 1210,36 1206,36 1206,34 1212,34 1212,36 		"/>
	</g>
	<polygon class="st6" points="1050,62 1050,64 1028,64 1028,62 1030,62 1030,60 1034,60 1034,58 1040,58 1040,56 1046,56 1046,58 
		1048,58 1048,62 	"/>
	<polygon class="st7" points="1126,62 1126,64 1102,64 1102,62 1104,62 1104,60 1108,60 1108,58 1114,58 1114,56 1120,56 1120,58 
		1122,58 1122,60 1124,60 1124,62 	"/>
	<polygon class="st6" points="1114,62 1114,64 1092,64 1092,62 1094,62 1094,60 1098,60 1098,58 1104,58 1104,56 1110,56 1110,58 
		1112,58 1112,62 	"/>
	<polygon class="st7" points="1248,62 1248,64 1224,64 1224,62 1226,62 1226,60 1230,60 1230,58 1236,58 1236,56 1242,56 1242,58 
		1244,58 1244,60 1246,60 1246,62 	"/>
	<polygon class="st7" points="1186,62 1186,64 1162,64 1162,62 1164,62 1164,60 1168,60 1168,58 1174,58 1174,56 1180,56 1180,58 
		1182,58 1182,60 1184,60 1184,62 	"/>
	<polygon class="st6" points="1174,64 1154,64 1154,62 1156,62 1156,60 1160,60 1160,58 1166,58 1166,56 1172,56 1172,58 1174,58 	
		"/>
	<polygon class="st6" points="1240,62 1240,64 1216,64 1216,62 1218,62 1218,60 1222,60 1222,58 1228,58 1228,56 1234,56 1234,58 
		1236,58 1236,60 1238,60 1238,62 	"/>
	<g>
		<g>
			<polygon class="st2" points="1256,32 1256,36 1252,36 1252,40 1244,40 1244,38 1250,38 1250,34 1246,34 1246,32 			"/>
			<rect x="1262" y="24" class="st4" width="2" height="2"/>
			<rect x="1258" y="28" class="st4" width="2" height="2"/>
			<rect x="1258" y="32" class="st4" width="2" height="2"/>
			<rect x="1258" y="36" class="st4" width="2" height="2"/>
			<rect x="1262" y="34" class="st4" width="2" height="2"/>
			<rect x="1264" y="36" class="st4" width="2" height="2"/>
			<rect x="1260" y="42" class="st4" width="2" height="2"/>
			<rect x="1262" y="46" class="st4" width="2" height="2"/>
			<g>
				<polygon class="st5" points="1268,34 1268,38 1266,38 1266,36 1264,36 1264,34 				"/>
				<polygon class="st5" points="1262,30 1260,30 1260,26 1264,26 1264,28 1262,28 				"/>
				<rect x="1258" y="30" class="st5" width="2" height="2"/>
				<rect x="1260" y="44" class="st5" width="4" height="2"/>
				<polygon class="st5" points="1262,36 1264,36 1264,38 1260,38 1260,36 1258,36 1258,38 1260,38 1260,44 1258,44 1258,40 
					1256,40 1256,38 1252,38 1252,36 1256,36 1256,32 1258,32 1258,34 1262,34 				"/>
			</g>
			<rect x="1244" y="34" class="st3" width="6" height="4"/>
		</g>
		<polygon class="st27" points="1270,12 1270,16 1268,16 1268,20 1266,20 1266,24 1262,24 1262,22 1264,22 1264,18 1266,18 1266,14 
			1268,14 1268,12 		"/>
		<rect x="1252" y="34" class="st28" width="2" height="6"/>
		<polygon class="st27" points="1274,8 1274,10 1272,10 1272,12 1270,12 1270,8 		"/>
		<rect x="1268" y="34" class="st27" width="8" height="2"/>
		<rect x="1266" y="54" class="st27" width="4" height="2"/>
		<rect x="1270" y="58" class="st27" width="2" height="2"/>
		<polygon class="st27" points="1270,54 1270,58 1268,58 1268,56 1266,56 1266,52 1264,52 1264,48 1266,48 1266,50 1268,50 1268,54 
					"/>
		<polygon class="st26" points="1278,52 1278,56 1276,56 1276,62 1268,62 1268,60 1266,60 1266,58 1264,58 1264,56 1262,56 1262,54 
			1266,54 1266,56 1268,56 1268,58 1270,58 1270,60 1274,60 1274,54 1276,54 1276,52 		"/>
		<polygon class="st26" points="1280,36 1280,32 1278,32 1278,30 1276,30 1276,28 1274,28 1274,26 1272,26 1272,30 1274,30 1274,32 
			1276,32 1276,36 1274,36 1274,38 1272,38 1272,40 1274,40 1274,44 1276,44 1276,42 1278,42 1280,42 1280,40 1280,38 1278,38 
			1278,40 1276,40 1276,38 1278,38 1278,36 		"/>
		<polygon class="st26" points="1280,4 1276,4 1276,2 1272,2 1272,0 1270,0 1270,2 1266,2 1266,4 1264,4 1264,6 1262,6 1262,10 
			1264,10 1264,8 1266,8 1266,6 1272,6 1272,8 1274,8 1274,12 1274,14 1274,22 1276,22 1276,14 1278,14 1278,8 1280,8 		"/>
	</g>
	<rect x="32" y="18" width="4" height="4"/>
	<polygon class="st1" points="40,18 40,24 38,24 38,26 30,26 30,18 32,18 32,22 36,22 36,18 34,18 34,16 38,16 38,18 	"/>
	<g>
		<polygon class="st2" points="48,32 48,36 44,36 44,40 36,40 36,38 42,38 42,34 38,34 38,32 		"/>
		<rect x="54" y="24" class="st4" width="2" height="2"/>
		<rect x="50" y="28" class="st4" width="2" height="2"/>
		<rect x="50" y="32" class="st4" width="2" height="2"/>
		<rect x="50" y="36" class="st4" width="2" height="2"/>
		<rect x="54" y="34" class="st4" width="2" height="2"/>
		<rect x="56" y="36" class="st4" width="2" height="2"/>
		<rect x="52" y="42" class="st4" width="2" height="2"/>
		<rect x="54" y="46" class="st4" width="2" height="2"/>
		<g>
			<polygon class="st5" points="60,34 60,38 58,38 58,36 56,36 56,34 			"/>
			<polygon class="st5" points="54,30 52,30 52,26 56,26 56,28 54,28 			"/>
			<rect x="50" y="30" class="st5" width="2" height="2"/>
			<rect x="52" y="44" class="st5" width="4" height="2"/>
			<polygon class="st5" points="54,36 56,36 56,38 52,38 52,36 50,36 50,38 52,38 52,44 50,44 50,40 48,40 48,38 44,38 44,36 48,36 
				48,32 50,32 50,34 54,34 			"/>
		</g>
		<rect x="36" y="34" class="st3" width="6" height="4"/>
	</g>
	<g>
		<rect x="28" class="st7" width="6" height="6"/>
		<rect x="32" y="12" width="2" height="2"/>
		<rect x="30" y="6" width="2" height="6"/>
	</g>
	<g>
		<rect x="20" class="st6" width="6" height="6"/>
		<rect x="24" y="12" width="2" height="2"/>
		<rect x="22" y="6" width="2" height="6"/>
	</g>
	<polygon class="st0" points="42,46 42,52 40,52 40,56 36,56 36,52 38,52 38,46 36,46 36,44 34,44 34,42 24,42 24,46 23,46 23,51 
		22,51 22,56 18,56 18,51 19,51 19,46 20,46 20,40 18,40 18,38 16,38 16,30 18,30 18,28 20,28 20,24 16,24 16,22 14,22 14,20 16,20 
		16,18 18,18 18,16 20,16 20,14 34,14 34,18 30,18 30,26 34,26 34,32 38,32 38,34 36,34 36,42 40,42 40,46 	"/>
	<polygon class="st7" points="44,62 44,64 22,64 22,62 24,62 24,60 28,60 28,58 34,58 34,56 40,56 40,58 42,58 42,62 	"/>
	<polygon class="st6" points="26,62 26,64 4,64 4,62 6,62 6,60 10,60 10,58 16,58 16,56 22,56 22,58 24,58 24,62 	"/>
</g>
</svg>
